<svg width="150" height="48" viewBox="0 0 150 48" fill="none" xmlns="http://www.w3.org/2000/svg">
<path d="M8.00329 0H39.9967C44.4232 0 48 3.59506 48 8V40C48 44.4247 44.4232 48 39.9967 48H8.00329C3.57678 48 0 44.4247 0 40V8C0 3.57531 3.57678 0 8.00329 0Z" fill="#003399"/>
<path d="M7.73149 23.9999H4V39.709H7.73149V23.9999Z" fill="#FFFF00"/>
<path d="M24.4344 27.5878C22.1442 27.5878 20.4463 28.1696 19.5183 28.6932L20.2093 31.0011C21.0583 30.4969 22.4996 30.0508 23.8026 30.0508C25.9744 30.0508 26.4482 31.1369 26.4482 31.6799V31.8156C21.6111 31.7963 18.6299 33.3284 18.6299 36.3732C18.6299 38.1575 20.0711 39.9805 22.7365 39.9805C24.316 39.9805 25.6585 39.4181 26.4877 38.4678H26.5272L26.9418 39.6896H29.9823V32.7272C29.9823 29.915 28.5608 27.5878 24.4344 27.5878ZM26.5667 35.3647C26.5667 35.5587 26.547 35.772 26.5075 35.966C26.5075 35.9853 26.468 36.0823 26.468 36.0823C26.468 36.1017 26.4482 36.1211 26.4482 36.1405C26.1126 36.9163 25.2439 37.6338 24.0593 37.6338C23.0326 37.6338 22.3219 37.1102 22.3219 36.1211C22.3219 35.0156 23.2893 34.4338 24.7306 34.2205C25.0662 34.1623 25.4413 34.1429 25.8362 34.1235C26.0731 34.1235 26.3298 34.1041 26.5667 34.1235V35.3647Z" fill="#FFFF00"/>
<path d="M40.2882 27.9369V34.8411C40.2882 35.1126 40.2487 35.3648 40.1698 35.5975C39.8736 36.3151 39.1431 37.1102 37.919 37.1102C36.3988 37.1102 35.7275 36.0048 35.7275 34.1817V27.9563H32.0947V34.8411C32.0947 35.772 32.2132 36.5478 32.4304 37.1878C32.6475 37.8278 32.9634 38.3708 33.3583 38.7781C33.7532 39.2048 34.227 39.5151 34.7601 39.709C35.3129 39.903 35.9052 39.9999 36.5765 39.9999C37.149 39.9999 37.6623 39.9223 38.0967 39.7866C38.5311 39.6508 38.9259 39.4763 39.2418 39.2823C39.5577 39.0884 39.8341 38.8751 40.0513 38.6617C40.2685 38.429 40.4462 38.2351 40.5646 38.0605L41.0385 39.7284H44V27.9563H40.2882V27.9369Z" fill="#FFFF00"/>
<path d="M11.2262 23.9999V27.9368H9.52832V30.6132H11.2262V35.4035C11.2262 36.9938 11.5421 38.1768 12.2529 38.8944C12.8452 39.5344 13.9113 39.9999 15.1749 39.9999C16.2608 39.9999 16.6952 39.8447 17.1887 39.6508V36.9162C17.09 36.955 16.7939 37.0132 16.4187 37.0132C15.1354 37.0132 14.8195 36.2181 14.8195 34.7829V30.6132H17.169V27.9368H14.859V23.9999H11.2262Z" fill="#FFFF00"/>
<path fill-rule="evenodd" clip-rule="evenodd" d="M38.906 23.9999L36.6553 27.1805H39.2614L42.4203 23.9999H38.906Z" fill="#FFFF00"/>
<path d="M65.392 33.5V17.3H69.16V33.5H65.392ZM77.0905 33.74C75.6185 33.74 74.5065 33.364 73.7545 32.612C73.0025 31.844 72.6265 30.708 72.6265 29.204V23.756H70.7065V20.972H72.6265V17.708H76.2745V20.972H78.9145V23.756H76.2745V28.868C76.2745 29.54 76.4105 30.036 76.6825 30.356C76.9545 30.676 77.3785 30.836 77.9545 30.836C78.4025 30.836 78.8185 30.756 79.2025 30.596V33.404C78.4345 33.628 77.7305 33.74 77.0905 33.74ZM84.6432 33.812C83.3952 33.812 82.3952 33.476 81.6432 32.804C80.9072 32.132 80.5392 31.244 80.5392 30.14C80.5392 28.716 81.0912 27.612 82.1952 26.828C83.2992 26.028 84.8592 25.628 86.8752 25.628C87.0512 25.628 87.2272 25.636 87.4032 25.652C87.5792 25.652 87.7552 25.66 87.9312 25.676C87.8512 24.956 87.5872 24.428 87.1392 24.092C86.7072 23.74 86.0672 23.564 85.2192 23.564C84.0512 23.564 82.8672 23.876 81.6672 24.5V21.644C82.9472 20.988 84.3312 20.66 85.8192 20.66C87.5952 20.66 88.9632 21.132 89.9232 22.076C90.8992 23.02 91.3872 24.372 91.3872 26.132V33.5H88.4112L88.2192 32.18C87.8512 32.692 87.3472 33.092 86.7072 33.38C86.0832 33.668 85.3952 33.812 84.6432 33.812ZM85.7232 31.316C86.3472 31.316 86.8752 31.092 87.3072 30.644C87.7392 30.196 87.9552 29.644 87.9552 28.988V27.932C87.8112 27.916 87.6592 27.908 87.4992 27.908C87.3552 27.908 87.2032 27.908 87.0432 27.908C86.0672 27.908 85.3072 28.068 84.7632 28.388C84.2352 28.692 83.9712 29.132 83.9712 29.708C83.9712 30.204 84.1312 30.596 84.4512 30.884C84.7712 31.172 85.1952 31.316 85.7232 31.316ZM97.6885 33.812C96.4085 33.812 95.3845 33.372 94.6165 32.492C93.8485 31.596 93.4645 30.412 93.4645 28.94V20.972H97.1125V28.34C97.1125 29.14 97.2725 29.756 97.5925 30.188C97.9285 30.62 98.4005 30.836 99.0085 30.836C99.6165 30.836 100.097 30.62 100.449 30.188C100.817 29.74 101.001 29.132 101.001 28.364V20.972H104.648V33.5H101.457L101.265 32.132C100.849 32.676 100.329 33.092 99.7045 33.38C99.0965 33.668 98.4245 33.812 97.6885 33.812ZM100.353 19.436H97.1845L99.8005 15.62H103.713L100.353 19.436ZM107.683 17.3H112.051C113.683 17.3 114.979 17.668 115.939 18.404C116.899 19.14 117.379 20.132 117.379 21.38C117.379 23.188 116.499 24.404 114.739 25.028C115.779 25.332 116.571 25.82 117.115 26.492C117.675 27.148 117.955 27.94 117.955 28.868C117.955 30.356 117.411 31.5 116.323 32.3C115.251 33.1 113.699 33.5 111.667 33.5H107.683V17.3ZM111.643 32.3C113.243 32.3 114.459 32.02 115.291 31.46C116.123 30.9 116.539 30.068 116.539 28.964C116.539 27.924 116.131 27.124 115.315 26.564C114.499 25.988 113.331 25.7 111.811 25.7H109.075V32.3H111.643ZM111.763 24.5C113.139 24.5 114.187 24.244 114.907 23.732C115.627 23.22 115.987 22.468 115.987 21.476C115.987 20.532 115.635 19.804 114.931 19.292C114.243 18.764 113.267 18.5 112.003 18.5H109.075V24.5H111.763ZM120.546 15.62H121.938V33.5H120.546V15.62ZM129.866 33.812C128.778 33.812 127.826 33.532 127.01 32.972C126.194 32.412 125.562 31.652 125.114 30.692C124.682 29.716 124.466 28.612 124.466 27.38C124.466 26.068 124.698 24.924 125.162 23.948C125.642 22.972 126.29 22.22 127.106 21.692C127.922 21.164 128.85 20.9 129.89 20.9C130.978 20.9 131.93 21.18 132.746 21.74C133.578 22.284 134.21 23.044 134.642 24.02C135.074 24.98 135.29 26.084 135.29 27.332C135.29 28.644 135.05 29.788 134.57 30.764C134.106 31.74 133.466 32.492 132.65 33.02C131.834 33.548 130.906 33.812 129.866 33.812ZM129.89 32.564C131.106 32.564 132.074 32.092 132.794 31.148C133.514 30.204 133.874 28.94 133.874 27.356C133.874 25.788 133.506 24.532 132.77 23.588C132.05 22.628 131.082 22.148 129.866 22.148C128.65 22.148 127.682 22.62 126.962 23.564C126.242 24.492 125.882 25.756 125.882 27.356C125.882 28.924 126.242 30.188 126.962 31.148C127.698 32.092 128.674 32.564 129.89 32.564ZM142.02 38.372C141.332 38.372 140.644 38.276 139.956 38.084C139.284 37.908 138.708 37.668 138.228 37.364V36.02C138.708 36.356 139.284 36.62 139.956 36.812C140.628 37.02 141.3 37.124 141.972 37.124C143.348 37.124 144.372 36.756 145.044 36.02C145.732 35.284 146.076 34.164 146.076 32.66V31.388C145.692 32.156 145.14 32.756 144.42 33.188C143.7 33.604 142.908 33.812 142.044 33.812C141.036 33.812 140.156 33.54 139.404 32.996C138.652 32.436 138.076 31.676 137.676 30.716C137.276 29.756 137.076 28.66 137.076 27.428C137.076 25.444 137.54 23.86 138.468 22.676C139.412 21.492 140.66 20.9 142.212 20.9C143.076 20.9 143.844 21.116 144.516 21.548C145.188 21.964 145.724 22.564 146.124 23.348L146.244 21.212H147.468V32.564C147.468 34.468 147.004 35.908 146.076 36.884C145.164 37.876 143.812 38.372 142.02 38.372ZM142.355 32.588C143.476 32.588 144.38 32.116 145.068 31.172C145.772 30.212 146.124 28.956 146.124 27.404C146.124 26.332 145.956 25.396 145.62 24.596C145.3 23.796 144.852 23.188 144.276 22.772C143.716 22.34 143.076 22.124 142.355 22.124C141.172 22.124 140.228 22.604 139.524 23.564C138.836 24.508 138.492 25.78 138.492 27.38C138.492 28.98 138.836 30.252 139.524 31.196C140.228 32.124 141.172 32.588 142.355 32.588Z" fill="#231D19"/>
</svg>
